<?xml version="1.0" encoding="utf-8"?>
<!-- Generator: Adobe Illustrator 15.0.0, SVG Export Plug-In . SVG Version: 6.00 Build 0)  -->
<!DOCTYPE svg PUBLIC "-//W3C//DTD SVG 1.1//EN" "http://www.w3.org/Graphics/SVG/1.1/DTD/svg11.dtd">
<svg version="1.1" id="Layer_1" xmlns="http://www.w3.org/2000/svg" xmlns:xlink="http://www.w3.org/1999/xlink" x="0px" y="0px"
	 width="2304px" height="2304px" viewBox="0 0 2304 2304" enable-background="new 0 0 2304 2304" xml:space="preserve">
<g>
	<g>
		<g>
			<path fill="#003E45" d="M333.024,204.647v838.505H223.547V204.647H333.024z"/>
			<path fill="#003E45" d="M1069.512,1015.782c-38.565,19.906-119.431,39.81-221.444,39.81
				c-236.373,0-413.031-149.288-413.031-424.229c0-262.499,177.902-439.156,437.913-439.156
				c103.258,0,170.437,22.392,199.052,36.077l-27.37,89.574c-39.811-19.906-98.281-34.834-167.95-34.834
				c-196.563,0-327.189,125.651-327.189,344.608c0,205.272,118.187,335.9,320.97,335.9c67.18,0,134.359-13.686,177.902-34.834
				L1069.512,1015.782z"/>
			<path fill="#003E45" d="M1169.019,1043.152V204.647h119.431l267.478,424.229c60.959,98.281,110.722,186.61,149.286,272.452
				l3.733-1.244c-9.951-111.966-12.44-213.98-12.44-343.364V204.647h102.013v838.505H1689.04l-266.23-425.473
				c-58.471-93.305-114.455-189.099-155.509-279.917l-3.732,1.244c6.22,105.747,7.464,206.517,7.464,345.853v358.293H1169.019z"/>
			<path fill="#003E45" d="M223.547,1298.334h451.598v90.816h-342.12v278.674h315.994v89.572H333.024v379.441H223.547V1298.334z"/>
			<path fill="#003E45" d="M831.91,1873.096l-87.085,263.742H632.859l284.892-838.504h130.628l286.138,838.504h-115.7
				l-89.572-263.742H831.91z M1106.852,1788.498l-83.354-241.351c-17.418-54.737-29.857-104.502-42.299-153.022h-3.731
				c-11.197,48.521-24.882,100.773-41.055,151.778l-82.109,242.595H1106.852z"/>
		</g>
		<g>
			<path fill="#00AFB8" d="M278.341,177.305v838.505H168.862V177.305H278.341z"/>
			<path fill="#00AFB8" d="M1014.828,988.44c-38.566,19.906-119.432,39.811-221.445,39.811
				c-236.373,0-413.031-149.289-413.031-424.229c0-262.499,177.902-439.156,437.913-439.156
				c103.258,0,170.438,22.393,199.052,36.077l-27.37,89.574c-39.811-19.906-98.281-34.834-167.95-34.834
				c-196.563,0-327.189,125.651-327.189,344.608c0,205.271,118.187,335.899,320.97,335.899c67.181,0,134.359-13.686,177.902-34.834
				L1014.828,988.44z"/>
			<path fill="#00AFB8" d="M1114.334,1015.81V177.305h119.432l267.477,424.229c60.959,98.281,110.723,186.61,149.287,272.452
				l3.732-1.244c-9.951-111.967-12.439-213.98-12.439-343.364V177.305h102.012v838.505h-109.478l-266.23-425.473
				c-58.471-93.305-114.455-189.099-155.51-279.916l-3.732,1.243c6.22,105.747,7.464,206.517,7.464,345.854v358.292H1114.334z"/>
			<path fill="#00AFB8" d="M168.862,1270.992H620.46v90.816H278.341v278.673h315.993v89.572H278.341v379.441H168.862V1270.992z"/>
			<path fill="#00AFB8" d="M777.227,1845.753l-87.085,263.742H578.175l284.893-838.503h130.628l286.137,838.503h-115.7
				l-89.572-263.742H777.227z M1052.167,1761.155l-83.354-241.35c-17.417-54.738-29.857-104.503-42.299-153.022h-3.731
				c-11.197,48.52-24.882,100.772-41.055,151.777l-82.109,242.595H1052.167z"/>
		</g>
	</g>
	<g>
		<path fill="#003E45" d="M1469.311,1429.564h-2.5l-141.164,76.204l-21.237-83.701l177.394-94.941h93.693v812.009h-106.186V1429.564
			z"/>
		<path fill="#003E45" d="M2135.138,1327.126v72.457l-353.537,739.552H1667.92l352.287-718.315v-2.499h-397.261v-91.194H2135.138z"
			/>
	</g>
	<g>
		<path fill="#00AFB8" d="M1414.626,1402.222h-2.499l-141.165,76.204l-21.236-83.7l177.393-94.941h93.693v812.009h-106.186V1402.222
			z"/>
		<path fill="#00AFB8" d="M2080.453,1299.784v72.456l-353.537,739.553h-113.681l352.288-718.315v-2.499h-397.261v-91.194H2080.453z"
			/>
	</g>
</g>
</svg>
