<?xml version="1.0" encoding="utf-8"?>
<!-- Generator: Adobe Illustrator 15.0.0, SVG Export Plug-In . SVG Version: 6.00 Build 0)  -->
<!DOCTYPE svg PUBLIC "-//W3C//DTD SVG 1.1//EN" "http://www.w3.org/Graphics/SVG/1.1/DTD/svg11.dtd">
<svg version="1.1" id="Layer_1" xmlns="http://www.w3.org/2000/svg" xmlns:xlink="http://www.w3.org/1999/xlink" x="0px" y="0px"
	 width="2304px" height="2304px" viewBox="0 0 2304 2304" enable-background="new 0 0 2304 2304" xml:space="preserve">
<g>
	<g>
		<g>
			<path fill="#003E45" d="M293.091,158.455v879.39H178.275v-879.39H293.091z"/>
			<path fill="#003E45" d="M1065.49,1009.141c-40.447,20.876-125.254,41.752-232.242,41.752
				c-247.899,0-433.171-156.568-433.171-444.914c0-275.3,186.577-460.57,459.266-460.57c108.292,0,178.748,23.484,208.757,37.837
				l-28.705,93.94c-41.751-20.876-103.073-36.533-176.139-36.533c-206.147,0-343.144,131.778-343.144,361.411
				c0,215.281,123.949,352.278,336.62,352.278c70.456,0,140.911-14.353,186.577-36.533L1065.49,1009.141z"/>
			<path fill="#003E45" d="M1169.848,1037.845v-879.39h125.255l280.518,444.914c63.932,103.073,116.121,195.709,156.568,285.736
				l3.913-1.305c-10.437-117.426-13.047-224.414-13.047-360.106V158.455h106.987v879.39h-114.815l-279.214-446.219
				c-61.321-97.854-120.034-198.319-163.091-293.565l-3.915,1.306c6.523,110.902,7.829,216.586,7.829,362.716v375.763H1169.848z"/>
			<path fill="#003E45" d="M178.275,1305.469h473.618v95.246H293.091v292.26h331.402v93.939H293.091v397.943H178.275V1305.469z"/>
			<path fill="#003E45" d="M816.303,1908.255l-91.331,276.603H607.545l298.784-879.389h136.997l300.089,879.389h-121.341
				l-93.94-276.603H816.303z M1104.649,1819.532l-87.418-253.118c-18.267-57.407-31.313-109.597-44.361-160.481h-3.913
				c-11.743,50.885-26.095,105.685-43.057,159.177l-86.113,254.423H1104.649z"/>
		</g>
		<g>
			<path fill="#00AFB8" d="M235.741,129.78v879.389H120.925V129.78H235.741z"/>
			<path fill="#00AFB8" d="M1008.139,980.466c-40.446,20.875-125.254,41.751-232.242,41.751
				c-247.899,0-433.171-156.568-433.171-444.914c0-275.299,186.577-460.57,459.266-460.57c108.292,0,178.748,23.485,208.757,37.838
				l-28.705,93.94c-41.751-20.876-103.073-36.533-176.139-36.533c-206.147,0-343.144,131.778-343.144,361.411
				c0,215.281,123.949,352.278,336.62,352.278c70.456,0,140.911-14.353,186.577-36.533L1008.139,980.466z"/>
			<path fill="#00AFB8" d="M1112.497,1009.169V129.78h125.254l280.519,444.913c63.932,103.074,116.121,195.71,156.567,285.737
				l3.914-1.306c-10.438-117.426-13.047-224.413-13.047-360.106V129.78h106.988v879.389h-114.816L1378.662,562.95
				c-61.321-97.854-120.034-198.318-163.091-293.564l-3.914,1.306c6.522,110.901,7.828,216.585,7.828,362.715v375.763H1112.497z"/>
			<path fill="#00AFB8" d="M120.925,1276.793h473.617v95.246H235.741v292.26h331.402v93.94H235.741v397.942H120.925V1276.793z"/>
			<path fill="#00AFB8" d="M758.952,1879.58l-91.331,276.602H550.195l298.784-879.389h136.997l300.089,879.389h-121.342
				l-93.939-276.602H758.952z M1047.299,1790.857l-87.418-253.119c-18.267-57.406-31.313-109.596-44.361-160.48h-3.914
				c-11.743,50.885-26.095,105.684-43.056,159.176l-86.113,254.424H1047.299z"/>
		</g>
	</g>
	<g>
		<path fill="#003E45" d="M1484.782,1443.099h-2.621l-148.048,79.919l-22.272-87.781l186.043-99.572h98.262v851.604h-111.363
			V1443.099z"/>
		<path fill="#003E45" d="M2183.075,1335.664v75.99L1812.3,2187.268h-119.224l369.465-753.34v-2.621H1645.91v-95.643H2183.075z"/>
	</g>
	<g>
		<path fill="#00AFB8" d="M1427.432,1414.424h-2.621l-148.048,79.918l-22.272-87.78l186.043-99.572h98.262v851.604h-111.363
			V1414.424z"/>
		<path fill="#00AFB8" d="M2125.725,1306.989v75.989l-370.775,775.614h-119.224l369.465-753.341v-2.621H1588.56v-95.642H2125.725z"
			/>
	</g>
</g>
</svg>
