<?xml version="1.0" encoding="utf-8"?>
<!-- Generator: Adobe Illustrator 17.0.0, SVG Export Plug-In . SVG Version: 6.00 Build 0)  -->
<!DOCTYPE svg PUBLIC "-//W3C//DTD SVG 1.1//EN" "http://www.w3.org/Graphics/SVG/1.1/DTD/svg11.dtd">
<svg version="1.1" id="Layer_1" xmlns="http://www.w3.org/2000/svg" xmlns:xlink="http://www.w3.org/1999/xlink" x="0px" y="0px"
	 width="2304px" height="2304px" viewBox="0 0 2304 2304" enable-background="new 0 0 2304 2304" xml:space="preserve">
<g>
	<g>
		<path fill="#1A4046" d="M234.008,1102.569H122.233V205.991h111.775V1102.569z"/>
		<path fill="#1A4046" d="M1018.804,377.221c-64.212-57.077-152.204-87.993-236.63-87.993
			c-200.958,0-354.351,167.663-354.351,366.241c0,196.201,152.205,363.864,351.972,363.864c87.994,0,172.42-33.295,239.009-92.75
			v131.99c-68.968,40.429-156.96,63.022-235.441,63.022c-255.655,0-467.315-203.336-467.315-462.558
			c0-265.169,212.848-472.071,476.828-472.071c78.479,0,158.149,19.026,225.928,60.644V377.221z"/>
		<path fill="#1A4046" d="M1105.6,163.184l673.029,705.134V205.991h111.775v933.44l-673.029-705.133v668.272H1105.6V163.184z"/>
		<path fill="#1A4046" d="M236.386,1353.609v252.087H547.93v102.263H236.386v439.965H124.612v-896.578h434.019v102.262H236.386z"/>
		<path fill="#1A4046" d="M709.646,1923.186l-102.263,224.739H487.285l428.075-934.629l428.075,934.629h-120.099l-102.263-224.739
			H709.646z M915.36,1458.25l-159.339,362.673h318.678L915.36,1458.25z"/>
		<path fill="#1A4046" d="M1300.61,1353.609l61.833-102.262H1563.4v896.578h-107.019v-794.315H1300.61z"/>
		<path fill="#1A4046" d="M2123.448,1287.019l-239.008,323.434l2.377,2.377c26.161-13.08,55.888-21.403,87.994-21.403
			c147.447,0,259.223,136.746,259.223,280.626c0,164.096-133.179,294.897-296.085,294.897
			c-154.583,0-298.463-128.424-298.463-286.573c0-90.371,45.186-166.473,97.506-236.63l305.598-411.426L2123.448,1287.019z
			 M2127.016,1883.945c0-111.776-95.128-192.634-190.255-192.634c-97.507,0-190.255,89.182-190.255,186.688
			c0,103.452,87.993,189.067,190.255,189.067C2036.645,2067.066,2127.016,1983.829,2127.016,1883.945z"/>
	</g>
	<g>
		<path fill="#3BAEB7" d="M181.741,1076.435H69.965V179.857h111.775V1076.435z"/>
		<path fill="#3BAEB7" d="M966.537,351.087c-64.212-57.077-152.204-87.993-236.63-87.993
			c-200.958,0-354.351,167.663-354.351,366.241c0,196.201,152.205,363.864,351.972,363.864c87.994,0,172.42-33.294,239.009-92.75
			v131.99c-68.968,40.429-156.96,63.022-235.441,63.022c-255.655,0-467.315-203.336-467.315-462.558
			c0-265.169,212.848-472.071,476.828-472.071c78.479,0,158.149,19.026,225.928,60.644V351.087z"/>
		<path fill="#3BAEB7" d="M1053.332,137.05l673.029,705.134V179.857h111.775v933.44l-673.029-705.133v668.272h-111.775V137.05z"/>
		<path fill="#3BAEB7" d="M184.119,1327.475v252.088h311.544v102.262H184.119v439.965H72.344v-896.578h434.019v102.262H184.119z"/>
		<path fill="#3BAEB7" d="M657.378,1897.052L555.116,2121.79H435.017l428.075-934.629l428.075,934.629h-120.098l-102.263-224.739
			H657.378z M863.092,1432.116l-159.339,362.673h318.678L863.092,1432.116z"/>
		<path fill="#3BAEB7" d="M1248.342,1327.475l61.833-102.262h200.957v896.578h-107.019v-794.315H1248.342z"/>
		<path fill="#3BAEB7" d="M2071.18,1260.885l-239.008,323.434l2.377,2.377c26.161-13.079,55.888-21.403,87.994-21.403
			c147.447,0,259.223,136.745,259.223,280.626c0,164.096-133.179,294.897-296.085,294.897
			c-154.583,0-298.463-128.423-298.463-286.573c0-90.371,45.186-166.473,97.506-236.63l305.598-411.426L2071.18,1260.885z
			 M2074.748,1857.811c0-111.776-95.128-192.634-190.255-192.634c-97.507,0-190.255,89.182-190.255,186.688
			c0,103.452,87.993,189.067,190.255,189.067C1984.377,2040.932,2074.748,1957.696,2074.748,1857.811z"/>
	</g>
</g>
</svg>
